<svg id="圖層_1" data-name="圖層 1" xmlns="http://www.w3.org/2000/svg" viewBox="0 0 1444.42 1059.34"><defs><style>.cls-1{fill:#ea9a81;}.cls-2{fill:#ed6b6c;}.cls-3{fill:#f7f0f7;}.cls-4{fill:#30262a;}.cls-5{fill:#44393d;}.cls-6{fill:#a74c3b;}</style></defs><path class="cls-1" d="M270.86,713.24c9.42,5.56,6.82-27.52,6.82-27.52s1.79,30.77,9.25,36.5c5.95,4.57,8.36-24.37,8.76-34.33l.27,0c.45,9.76,1.6,40.16,8.66,42.68,8,2.85,7.51-37,7.3-42.9l.1,0c8.76,64.12,17.58,16.81,16.06-11,4.74,3.65,15.49,10,18.06,7.43,2.95-3-5-14.82-7.58-18.15-6-7.68-14.67-25.33-20.78-32.9C315.13,629.79,274,637,274,637s-4.62,12.38-6.68,32.16a16,16,0,0,0-.52,3.68c0,1.63-.14,3.82-.24,6.29v0h0C266,691,265.55,710.11,270.86,713.24Z" transform="translate(-252.03 -13)"/><path class="cls-2" d="M407.46,206.74S297.17,223.08,263.9,324.58c-24.07,73.44-4.91,300.61,0,315s59.71,13.87,72.19,0S407.46,206.74,407.46,206.74Z" transform="translate(-252.03 -13)"/><path class="cls-3" d="M597.27,624.42c-2.82,47.06-8.16,108.14-18,182.83-8.4,63.57-17.62,183.54-26.23,240.81l-10.14.16c-37.52.6-75.53,1.33-113.48,2.12l6.07-199.69h0l0-.84v0L442,696.16l1.88-73.84h0c.37-.17,6.27-3,15.58-6.84h0c7.06-2.94,16.07-6.52,26.1-10.07,34-12,79.79-23.67,100.62-8.93h0c5.35,3.79,9,9.31,10.48,17h0c.11.51.2,1,.27,1.57A46.68,46.68,0,0,1,597.27,624.42Z" transform="translate(-252.03 -13)"/><path class="cls-3" d="M461.33,568.42c-.27,10.88-.7,23.31-1.37,37.27q-.24,4.77-.49,9.77h0c-.12,2.14-.24,4.3-.36,6.51-2.72,47.87-8.09,111.09-18.42,189.19q-2.55,19.32-5.2,38.61v0c0,.19-.05.38-.07.55h0c-6.83,49.85-14,155.17-20.77,200.3l-25.41.56c-6.3.13-12.57.28-18.85.42-26.74.59-53.3,1.22-79.51,1.84l9.49-280.1h0l3.1-73.3,1.6-63.22.05-1.94.24-9.67,0-1.21.25-10.08h0l.05-2.1.1-3.79,1.53-60.69,2.83-.65,31.68-7.36h0l58.55-13.59h0l18.77-4.35,42.05-9.76s.21,3.76.36,11.24C461.76,532.27,461.85,547.48,461.33,568.42Z" transform="translate(-252.03 -13)"/><path class="cls-4" d="M434.57,851.3c-.11-.84-10.77-84.53-18.79-114.51-7.94-29.7-44.75-55.5-45.12-55.76l1.11-1.59c.37.26,37.76,26.48,45.88,56.85,8.05,30.1,18.73,113.92,18.84,114.77Z" transform="translate(-252.03 -13)"/><path class="cls-1" d="M434,197.23l9.73-30.6,2.83-8.91,16.66-52.39,2.19,52.11,1.31,31.28.42,9.9c.28,6.72,4.48,8.13,9.6,14,2.07,2.36,15.34,16.71.28,23.19-18.75,8.08-53.82-4.15-67.15-20.17C410,215.6,430.87,207.12,434,197.23Z" transform="translate(-252.03 -13)"/><ellipse class="cls-1" cx="460.7" cy="124.89" rx="47.76" ry="56.16" transform="translate(-265.6 57.94) rotate(-8.68)"/><path class="cls-4" d="M511.93,86.94s-29.19,27.39-25.34,42.79,2.87,21.45-14.17,29.66-2,21.57-24.72,22.53-61.54-21-50.54-68.19a179.36,179.36,0,0,1,14.13-39.66Z" transform="translate(-252.03 -13)"/><path class="cls-4" d="M597.27,624.42s-198.16-11.35-292.2,12.43l-1.4-28.13,131.86-41L542,570.5l32.7,7.32,23.08,37.39Z" transform="translate(-252.03 -13)"/><path class="cls-2" d="M299.61,281.81s17.44-78.69,124.13-78.68c185.93,0,133.78,159.12,151,412.08,0,0-119.87-27.25-293.32,9,0,0-16.89-137,4.93-252.81C292.09,340.84,291.05,308.4,299.61,281.81Z" transform="translate(-252.03 -13)"/><path class="cls-4" d="M395.85,120.85S387.35,87.12,404.5,70s72.18-21.88,97.62,0,24.25,24,15.82,28-.89,14.5-15.08,16.86-4.12,27.91-28.68,22.83S395.85,120.85,395.85,120.85Z" transform="translate(-252.03 -13)"/><path class="cls-1" d="M494.7,130.37c-3.31-4.57-9.39-5.94-13.58-3.06s-4.91,8.92-1.61,13.49,9.39,5.95,13.59,3.07S498,135,494.7,130.37Z" transform="translate(-252.03 -13)"/><path class="cls-4" d="M487.39,145.86c-2.3,0-6.28-1-9.27-6.78a.33.33,0,1,1,.59-.31c4.19,8.14,10.11,6.3,10.36,6.22a.33.33,0,0,1,.42.21.34.34,0,0,1-.21.42A6.52,6.52,0,0,1,487.39,145.86Z" transform="translate(-252.03 -13)"/><path class="cls-4" d="M310.51,590.32c-13.33-138.19,7.3-278.19,7.51-279.58l1.22.18c-.21,1.4-20.82,141.24-7.5,279.28Z" transform="translate(-252.03 -13)"/><path class="cls-3" d="M1199.72,1063.25c-37.9-1.67-77.84-3.53-120.15-5.58-10-65.17-21.19-197.77-31.25-273.84-9.88-74.7-15.22-135.77-18-182.83a46,46,0,0,1,.32-9.38c.07-.53.16-1,.25-1.56h0c1.44-7.71,5.15-13.22,10.49-17h0c20.84-14.74,66.61-3.1,100.65,8.93,10,3.54,19,7.12,26.08,10.07,9.61,4,15.59,6.85,15.59,6.85h0l1.87,73.83,6.52,153.65v0h0l0,.81h0Z" transform="translate(-252.03 -13)"/><path class="cls-3" d="M1338.31,1068.69c-37.58-1.24-77.39-2.8-119.83-4.62-8.36-54.56-17.62-173.35-26.35-237.13h0c0-.17-.05-.34-.07-.52h0v0c-1.76-12.84-3.5-25.75-5.2-38.63-10.33-78.11-15.7-141.32-18.42-189.19q-.18-3.31-.36-6.52c-.18-3.33-.34-6.59-.5-9.77q-1-20.94-1.36-37.27c-.09-3.44-.16-6.72-.22-9.86-.54-31.13.32-46.91.32-46.91l57.12,13.26h0l96.73,22.45,1.54,60.69.4,16,.33,12.81,1.59,63.23Z" transform="translate(-252.03 -13)"/><path class="cls-4" d="M1193,827.88l-1.92-.24c.1-.85,10.78-84.67,18.83-114.77,8.13-30.38,45.52-56.59,45.89-56.85l1.11,1.59c-.37.26-37.19,26.07-45.13,55.76C1203.75,743.34,1193.09,827,1193,827.88Z" transform="translate(-252.03 -13)"/><path class="cls-1" d="M1193.53,173.81l-9.73-30.6L1181,134.3l-16.66-52.39L1162.12,134l-1.31,31.28-.42,9.9c-.28,6.72-4.48,8.13-9.6,14-2.07,2.37-15.34,16.72-.28,23.2,18.75,8.07,53.82-4.15,67.15-20.17C1217.55,192.18,1196.68,183.7,1193.53,173.81Z" transform="translate(-252.03 -13)"/><ellipse class="cls-1" cx="1166.85" cy="101.47" rx="56.16" ry="47.76" transform="translate(638.46 1226.65) rotate(-81.32)"/><path class="cls-4" d="M1140,81.91c-27.32,1-40.57-14.36-40.89-28.58-.4-18.23,11.38-34.38,25.11-27.61s7.83-9.84,21-11.6c24.66-3.3,29.29,13.78,49.47,14.62,26.61,1.09,57,44.31,34.65,75.85C1229.31,104.59,1161.52,81.12,1140,81.91Z" transform="translate(-252.03 -13)"/><path class="cls-4" d="M1115.62,63.52s29.19,27.38,25.34,42.79-2.88,21.44,14.17,29.66,2,21.57,24.71,22.53,50.56-25.19,50.55-68.2a63.68,63.68,0,0,0-14.14-39.66Z" transform="translate(-252.03 -13)"/><path class="cls-1" d="M1126.22,105.63c3.31-4.57,9.39-5.94,13.59-3.06s4.91,8.92,1.6,13.49-9.39,5.94-13.58,3.06S1122.92,110.2,1126.22,105.63Z" transform="translate(-252.03 -13)"/><path class="cls-4" d="M1240.26,116.42a.68.68,0,0,1-.67-.54c-1.33-5.8-7-9.12-7.06-9.15a.7.7,0,0,1-.26-1,.69.69,0,0,1,1-.25c.26.14,6.26,3.65,7.72,10a.69.69,0,0,1-.52.83Z" transform="translate(-252.03 -13)"/><path class="cls-4" d="M1232.87,103.49a.7.7,0,0,1,0-1.39c.08,0,7.45-.53,8.51-6.09a.7.7,0,0,1,1.37.26c-1.26,6.63-9.45,7.2-9.79,7.22Z" transform="translate(-252.03 -13)"/><path class="cls-4" d="M1128.31,24.64a5.21,5.21,0,0,1-1.48-.22,19.27,19.27,0,0,1-5.61-2.91c-3-2.05-5.65-3.82-11.35-2a.69.69,0,0,1-.42-1.32c6.34-2,9.5.14,12.55,2.2a18,18,0,0,0,5.21,2.72,3.18,3.18,0,0,0,2.85-.38c3-2.07,3.77-9,3.78-9.07a.69.69,0,1,1,1.38.13c0,.31-.79,7.66-4.38,10.09A4.42,4.42,0,0,1,1128.31,24.64Z" transform="translate(-252.03 -13)"/><path class="cls-4" d="M1192.57,26.48c-9.66,0-17.18-6.83-17.53-7.15a.69.69,0,1,1,.94-1c.09.08,9,8.19,19.48,6.55a.7.7,0,1,1,.22,1.38A20.76,20.76,0,0,1,1192.57,26.48Z" transform="translate(-252.03 -13)"/><path class="cls-4" d="M1133.53,121.12a6.49,6.49,0,0,1-1.88-.24.34.34,0,1,1,.21-.64c.25.09,6.17,1.92,10.35-6.21a.34.34,0,0,1,.6.31C1139.81,120.15,1135.84,121.12,1133.53,121.12Z" transform="translate(-252.03 -13)"/><path class="cls-4" d="M1030.28,601s198.16-11.36,292.2,12.43l1.4-28.13-131.86-41-106.46,2.75-32.7,7.32-23.08,37.39Z" transform="translate(-252.03 -13)"/><path class="cls-2" d="M1304.89,258.39s-17.44-78.69-124.13-78.68c-185.93,0-133.78,159.12-151,412.08,0,0,119.87-27.26,293.32,9,0,0,16.89-137-4.93-252.81C1312.41,317.42,1313.45,285,1304.89,258.39Z" transform="translate(-252.03 -13)"/><path class="cls-4" d="M1034.69,439.18,1034,438c35-21.69,80.65-78.84,81.11-79.41l1.05.83C1115.69,360,1069.94,417.36,1034.69,439.18Z" transform="translate(-252.03 -13)"/><path class="cls-4" d="M1327.44,435.63c-.78-19.23-13-136.71-13.15-137.9l1.33-.14c.13,1.19,12.37,118.72,13.16,138Z" transform="translate(-252.03 -13)"/><path class="cls-1" d="M1219.41,546.34c8.48-8.3-26.9-14.91-26.9-14.91s32.73,6.81,40.84.6c6.46-4.94-23.18-15.62-33.49-18.85l.09-.28c10.35,2.28,42.53,9.65,47.15,3,5.25-7.58-36.61-18.29-42.88-19.74,0,0,0-.07,0-.11,69.64,8.91,22.56-13.68-7-19.92,5.16-3.94,14.89-13.4,12.87-16.83-2.32-3.94-16.92,1.05-21.14,2.82-9.74,4.08-30.68,8.22-40.33,12.5-4.19,1.85-8.26,47-8.26,47s11.67,8.34,31.81,16.07a17.47,17.47,0,0,0,3.71,1.58c1.69.51,3.95,1.23,6.52,2h0C1194.77,545.13,1214.63,551,1219.41,546.34Z" transform="translate(-252.03 -13)"/><path class="cls-1" d="M341.75,539.27c-8.48-8.3,26.9-14.91,26.9-14.91s-32.73,6.81-40.84.61C321.35,520,351,509.34,361.3,506.11c0-.09-.06-.19-.1-.28-10.35,2.29-42.52,9.66-47.15,3-5.24-7.58,36.61-18.29,42.89-19.75,0,0,0-.07,0-.1-69.64,8.9-22.56-13.69,7-19.93-5.17-3.94-14.9-13.39-12.87-16.82,2.32-3.94,16.92,1,21.14,2.81,9.73,4.09,30.68,8.23,40.33,12.5,4.18,1.85,8.26,47,8.26,47s-11.67,8.34-31.81,16.06a16.5,16.5,0,0,1-3.71,1.58c-1.7.51-4,1.23-6.52,2h0C366.38,538.06,346.53,544,341.75,539.27Z" transform="translate(-252.03 -13)"/><path class="cls-5" d="M979.78,652.9C977,700,971.6,761,961.73,835.73c-7.16,54.15-14.91,164.64-22.36,215l-4.7-.24c-20.7-1.06-43.17-1.87-67.1-2.48l-14.56-.35q-19.32-.41-39.78-.66L818,879.12h0l0-.81v0s0,0,0-.07l6.5-153.58,1.86-73.83h0c.28-.14,6.21-2.95,15.59-6.86,7-3,16.06-6.52,26.08-10.07,34-12,79.82-23.67,100.65-8.93,5.35,3.78,9,9.31,10.49,17h0c.11.52.2,1,.27,1.57A46.78,46.78,0,0,1,979.78,652.9Z" transform="translate(-252.03 -13)"/><path class="cls-5" d="M843.84,596.9c-.27,10.88-.7,23.3-1.37,37.27-.16,3.17-.32,6.43-.5,9.77q-.16,3.21-.36,6.51c-2.71,47.87-8.08,111.08-18.41,189.19q-2.57,19.3-5.19,38.57s0,0,0,.07,0,.34-.08.51c0,0,0,0,0,0-5.23,38.2-10.64,132.16-15.95,168-33.8-.36-69.6-.42-106.78-.26q-10.08,0-20.32.11L686,728.55l1.61-63.23v-.05l.32-12.76.41-16h0l1.53-60.69L817.1,546.31h0l26.62-6.19s.13,2.45.27,7.31C844.22,556.18,844.43,572.71,843.84,596.9Z" transform="translate(-252.03 -13)"/><path class="cls-4" d="M817.07,879.78c-.1-.84-10.77-84.54-18.78-114.51-7.94-29.69-44.75-55.51-45.12-55.76l1.1-1.59c.38.26,37.76,26.47,45.89,56.85,8.05,30.1,18.73,113.92,18.83,114.76Z" transform="translate(-252.03 -13)"/><path class="cls-1" d="M816.52,225.71l9.73-30.61,2.84-8.91,16.65-52.38,2.19,52.11,1.31,31.28.42,9.9c.28,6.72,4.49,8.13,9.6,14,2.08,2.37,15.34,16.71.29,23.19-18.76,8.08-53.82-4.15-67.16-20.16C792.5,244.08,813.38,235.6,816.52,225.71Z" transform="translate(-252.03 -13)"/><ellipse class="cls-1" cx="843.2" cy="153.36" rx="47.76" ry="56.16" transform="translate(-265.52 115.98) rotate(-8.68)"/><path class="cls-4" d="M979.77,652.9s-198.16-11.36-292.2,12.42l-1.39-28.13,131.85-41L924.49,599l32.71,7.32,23.07,37.39Z" transform="translate(-252.03 -13)"/><path class="cls-6" d="M705.16,310.29S722.6,231.6,829.3,231.6c185.92,0,133.77,159.12,151,412.09,0,0-119.87-27.26-293.32,9,0,0-16.89-137,4.93-252.81C697.64,369.31,696.6,336.88,705.16,310.29Z" transform="translate(-252.03 -13)"/><path class="cls-6" d="M850.21,232.37s63.3-2.83,104.49,44.06c25.57,29.11,63.1,139.71,93.27,150.24l107.91,39.93s21.26,39.14-13.24,66.86c0,0-98.19,29.32-195.74-10.52-9.55-3.9-44.37-54.57-44.37-54.57Z" transform="translate(-252.03 -13)"/><path class="cls-6" d="M795,234.93s-59.65.91-104,44.83c-16.24,16.08-40.71,43.3-60.33,65.57A185.9,185.9,0,0,1,552.47,398L405.72,459.73s-19.89,34.92,14.61,62.64c0,0,158.88,7.52,256.42-32.32a37,37,0,0,0,14.28-9.9Z" transform="translate(-252.03 -13)"/><path class="cls-4" d="M682.61,487.53l-1.34-.06c.79-19.27,13-136.79,13.16-138l1.33.14C695.64,350.81,683.4,468.3,682.61,487.53Z" transform="translate(-252.03 -13)"/><path class="cls-4" d="M872.92,78.68c-18.61-8.37-58.68-25.16-88,5C746.27,123.54,772.38,185,731,197.42S659.68,244.75,688.52,272s-28.37,99,83.78,107,93.39-72.65,95.24-99.87,62.2-5.91,61-37.86-75.81-51-58.31-86.74S901.8,91.67,872.92,78.68Z" transform="translate(-252.03 -13)"/><path class="cls-1" d="M883.83,157.53c-3.31-4.57-9.39-5.95-13.58-3.07s-4.92,8.92-1.61,13.5S878,173.9,882.22,171,887.13,162.1,883.83,157.53Z" transform="translate(-252.03 -13)"/><path class="cls-4" d="M876.52,173c-2.31,0-6.28-1-9.27-6.79a.33.33,0,1,1,.59-.3c4.2,8.15,10.29,6.23,10.35,6.21a.34.34,0,0,1,.22.64A7.16,7.16,0,0,1,876.52,173Z" transform="translate(-252.03 -13)"/><path class="cls-4" d="M872.92,78.68s19,3.62,27.24,25.69,2.9,39.66-27.24,40.33S872.92,78.68,872.92,78.68Z" transform="translate(-252.03 -13)"/><path class="cls-4" d="M749.73,184.69l-1.05-1.43c7.08-5.22,7.39-20.53,7.75-38.25.52-25.87,1.16-58.07,24.37-72,38.46-23.08,86.71,4.61,87.19,4.9l-.89,1.53c-.48-.28-47.84-27.44-85.39-4.91-22.36,13.42-23,45.07-23.51,70.51C757.83,163.24,757.52,179,749.73,184.69Z" transform="translate(-252.03 -13)"/><path class="cls-4" d="M846.19,361.12l-.9-1.53c.33-.2,33.77-20.48,30.06-54.4-2.22-20.33,7.76-21.87,21.57-24,10.88-1.68,24.43-3.77,37.56-15.48,4.89-4.36,7-9.45,6.37-15.15C938,226,885.12,197,884.58,196.72l.85-1.56A247.88,247.88,0,0,1,912.8,213c18.53,14,28.56,26.6,29.81,37.36.73,6.3-1.6,11.91-7,16.67-13.53,12.06-27.36,14.2-38.47,15.92-13.79,2.13-22.11,3.42-20.07,22.06C881,340.06,846.54,360.91,846.19,361.12Z" transform="translate(-252.03 -13)"/><path class="cls-1" d="M742.27,405.54c-2.08-11.68,30.56,3.49,30.56,3.49s-30.59-13.47-33.6-23.23c-2.39-7.77,27.95.74,38.22,4.1l.09-.28c-9.76-4.16-40.23-16.84-40.11-25,.13-9.22,40.42,6.37,46.38,8.83l.05-.1c-61.87-33.19-10.42-24.24,17.25-12.16-1.92-6.21-4.35-19.56-.71-21.17,4.18-1.86,13.17,10.67,15.58,14.57,5.55,9,20.19,24.51,25.57,33.59,2.33,3.94.16,43.07.16,43.07s-35.09,0-56-5.39a17.61,17.61,0,0,1-3.94-.87c-1.67-.57-3.93-1.3-6.49-2.13h0C763,418.86,743.45,412.13,742.27,405.54Z" transform="translate(-252.03 -13)"/><path class="cls-2" d="M1159.84,180.48s-69.34,6.91-95.79,45.07c-13,18.79-40.88,61.74-60.49,84-21.13,24-47.77,31.48-77.94,42l-92.94,24.55s-9.95,45.35,1.83,62.5c0,0,111.19,31.14,208-10.58,23-9.92,140.5-113.74,140.5-113.74Z" transform="translate(-252.03 -13)"/><path class="cls-4" d="M976.5,533.63C953,528.76,935.82,513.17,935.65,513l.6-.65c.17.15,17.17,15.58,40.43,20.4Z" transform="translate(-252.03 -13)"/><path class="cls-1" d="M865.28,542.44c6-10.22-29.86-7.4-29.86-7.4s33.37-1.94,39.59-10c5-6.45-26.44-9.06-37.24-9.49,0-.1,0-.2,0-.3,10.58-.49,43.57-1.74,46.3-9.4,3.09-8.68-40.11-8.14-46.55-7.91,0,0,0-.07,0-.11,69.56-9.51,18.22-19.08-11.92-17.42,4-5.14,10.9-16.81,8-19.59-3.27-3.2-16.07,5.41-19.68,8.22-8.34,6.47-27.48,15.92-35.69,22.56-3.56,2.87-15.19,40.3-15.19,40.3s32.89,12.26,54.34,14.48a16.91,16.91,0,0,0,4,.56c1.78.05,4.14.16,6.83.27h0C841.17,547.68,861.88,548.2,865.28,542.44Z" transform="translate(-252.03 -13)"/><path class="cls-2" d="M474.18,204.44s75.26,3.37,116.68,61.93C604.05,285,640.21,376.54,664.8,396.93l126,86.38s-6.49,46-23.53,57.93c0,0-128.42-18.6-204.54-91.47-18.08-17.3-78.61-146.63-78.61-146.63Z" transform="translate(-252.03 -13)"/><path class="cls-1" d="M1647,726.07c-9.42,5.56-6.83-27.52-6.83-27.52s-1.78,30.77-9.25,36.5c-5.94,4.57-8.35-24.37-8.75-34.33l-.28,0c-.44,9.76-1.59,40.16-8.66,42.68-8,2.85-7.5-37-7.29-42.91h-.1c-8.76,64.12-17.59,16.8-16.06-11-4.75,3.65-15.5,10-18.06,7.42-3-3,5-14.81,7.57-18.14,6-7.69,14.67-25.33,20.79-32.9,2.65-3.28,43.83,3.91,43.83,3.91s4.62,12.39,6.67,32.17a15.47,15.47,0,0,1,.52,3.68c0,1.63.15,3.81.25,6.29v0h0C1651.85,703.85,1652.34,722.94,1647,726.07Z" transform="translate(-252.03 -13)"/><path class="cls-5" d="M1518,253.86s111.57-5.9,133.65,112.77c14.14,76,7.24,271.39,2.33,285.74s-59.71,13.86-72.18,0S1518,253.86,1518,253.86Z" transform="translate(-252.03 -13)"/><path class="cls-6" d="M1497,1072.2c-23.36-.18-47.57-.55-72.81-1.1h0q-17.39-.39-35.41-.88c-10.58-67.61-23.72-211.36-35.24-298.43-9.11-68.85-14-125.15-16.64-168.53a43.22,43.22,0,0,1,.3-8.65c.07-.5.15-1,.24-1.44h0c1.33-7.1,4.73-12.17,9.66-15.65h0c19.2-13.6,61.4-2.87,92.77,8.23,9.25,3.26,17.55,6.56,24,9.28,8.85,3.7,14.37,6.32,14.37,6.32l1.72,68.06L1486,811v0l0,.81h0Z" transform="translate(-252.03 -13)"/><path class="cls-6" d="M1626.67,1071c-1.25,0-2.5.08-3.76.12q-18.51.51-37.61.81c-20.36.33-41.31.46-63,.42h-5.18c-8.92-56.91-22.07-194.82-31.1-260.83h0c0-.18,0-.35-.08-.52v0q-2.43-17.75-4.78-35.55c-9.53-72-14.48-130.26-17-174.38q-.17-3.06-.33-6-.25-4.6-.45-9c-.62-12.88-1-24.34-1.27-34.37-.86-34.7.1-52.33.1-52.33l94,21.82,47.82,11.1,1.41,55.94.37,14.74h0l.3,11.81.77,30.35.43,17,.28,10.93,2.94,69.58Z" transform="translate(-252.03 -13)"/><path class="cls-4" d="M1486.82,812.39l-1.77-.22c.1-.78,9.94-78,17.36-105.79,7.49-28,41.95-52.16,42.3-52.4l1,1.46c-.34.24-34.27,24-41.59,51.4C1496.74,734.47,1486.92,811.62,1486.82,812.39Z" transform="translate(-252.03 -13)"/><path class="cls-4" d="M1336.84,603.26s182.66-10.47,269.35,11.46l1.29-25.93L1485.93,551l-98.13,2.53-30.14,6.75-21.28,34.46Z" transform="translate(-252.03 -13)"/><path class="cls-5" d="M1590,287.45s-9-39-107.39-39c-171.38,0-130.34,113.16-146.2,346.33,0,0,110.5-25.12,270.38,8.32,0,0,15.57-126.28-4.54-233C1596.91,341.86,1597.87,312,1590,287.45Z" transform="translate(-252.03 -13)"/><path class="cls-4" d="M1607.38,603.15l-1.23-.12c13.31-138-4.36-231.93-4.54-232.86l1.21-.23C1603,370.87,1620.71,464.94,1607.38,603.15Z" transform="translate(-252.03 -13)"/><path class="cls-1" d="M1668.3,487.38c8.48-8.3-26.9-14.91-26.9-14.91s32.73,6.8,40.84.6c6.47-4.94-23.17-15.62-33.49-18.86,0-.09.07-.18.1-.28,10.35,2.29,42.52,9.66,47.15,3,5.24-7.58-36.61-18.29-42.89-19.74,0,0,0-.08,0-.11,69.64,8.91,22.56-13.68-7-19.92,5.17-3.94,14.9-13.4,12.88-16.83-2.33-3.94-16.93,1.05-21.15,2.82-9.73,4.08-30.67,8.22-40.33,12.49-4.18,1.86-8.26,47-8.26,47S1601,471,1621.1,478.7a17.47,17.47,0,0,0,3.71,1.58c1.7.51,4,1.23,6.52,2h0C1643.67,486.17,1663.52,492.06,1668.3,487.38Z" transform="translate(-252.03 -13)"/><path class="cls-2" d="M1215,183s59.65.91,104,44.83c16.24,16.08,40.71,43.3,60.33,65.57a185.72,185.72,0,0,0,78.23,52.62l146.76,61.79s19.88,34.92-14.62,62.64c0,0-158.88,7.51-256.42-32.32a37.07,37.07,0,0,1-14.28-9.91Z" transform="translate(-252.03 -13)"/><rect class="cls-4" x="526.25" y="349.23" width="0.89" height="57.31" transform="translate(-338.96 155.93) rotate(-16.85)"/><path class="cls-4" d="M1327.67,435.62c-1-28.4-13-109.15-13.15-110l.87-.13c.13.81,12.15,81.61,13.16,110.06Z" transform="translate(-252.03 -13)"/><path class="cls-1" d="M1062.44,222.85c2-10.74,16.79,5.21,16.79,5.21s-12.24-13.27-11.61-22.66c.49-7.48,14.13,1.43,21.87,7.71l.17-.22c-7-6.78-16.37-15.79-13.59-22.76,3.15-7.89,20,6.85,24.3,10.93l.07-.07c-14.75-18.8-1-24.3,18.86-4.8.39-6,2.69-18.27,6.35-18.47,4.21-.22,7.83,13.53,8.62,17.67,1.83,9.56,9.33,27.75,11,37.34.71,4.16-31.89,30.32-31.89,30.32s-12.35-4.71-28.55-16.23a15.61,15.61,0,0,1-3.11-2c-1.26-1-3-2.41-4.89-4v0h0C1067.55,233.3,1061.28,228.91,1062.44,222.85Z" transform="translate(-252.03 -13)"/><path class="cls-5" d="M1515.71,220.39s-25.33-15.13-87.45,16.81c-39.09,20.11-122.9,64.71-161.27,47.27-37.56-17.07-124-60.5-124-60.5s-42.52,8.7-40.88,42.51c0,0,49.34,85.72,139.49,121.87,51.32,20.58,217.47-62.41,210.19-66.55Z" transform="translate(-252.03 -13)"/><ellipse class="cls-1" cx="1463.65" cy="169.26" rx="51.77" ry="44.02" transform="translate(823.46 1577.61) rotate(-81.32)"/><path class="cls-1" d="M1426.21,173.1c3-4.22,8.65-5.48,12.52-2.83s4.52,8.22,1.47,12.44-8.65,5.48-12.52,2.82S1423.16,177.31,1426.21,173.1Z" transform="translate(-252.03 -13)"/><path class="cls-4" d="M1432.94,187.37a6.09,6.09,0,0,1-1.74-.22.31.31,0,0,1,.2-.58c.23.07,5.68,1.77,9.54-5.73a.31.31,0,0,1,.42-.13.3.3,0,0,1,.13.41C1438.73,186.48,1435.07,187.37,1432.94,187.37Z" transform="translate(-252.03 -13)"/><path class="cls-4" d="M1436.26,100.42s-17.48,3.33-25.11,23.67-2.68,36.56,25.11,37.18S1436.26,100.42,1436.26,100.42Z" transform="translate(-252.03 -13)"/><path class="cls-4" d="M1436.26,100.42s27.32-36.87,74.23-19.42,44,83.27,68.08,100,32.09,51.07,0,51.07-25.91,16.52-60.57,21.81-53.91-12.54-76.78-3.27-37.6-15.82-16.88-33.27,27.11-43.63,7-68.43S1436.26,100.42,1436.26,100.42Z" transform="translate(-252.03 -13)"/></svg>