<?xml version="1.0" encoding="utf-8"?>
<!-- Generator: Adobe Illustrator 25.0.0, SVG Export Plug-In . SVG Version: 6.00 Build 0)  -->
<svg version="1.1" id="圖層_1" xmlns="http://www.w3.org/2000/svg" xmlns:xlink="http://www.w3.org/1999/xlink" x="0px" y="0px"
	 viewBox="0 0 500 500" style="enable-background:new 0 0 500 500;" xml:space="preserve">
<style type="text/css">
	.st0{fill:#81D8D0;}
</style>
<g id="OBJECTS">
	<path class="st0" d="M145.9,254.1c0.4,0,0.7,0.2,0.9,0.5c1.2-5.2,1.7-10.5-0.8-15.4l-0.3-0.5c-2.3-1.5-4.5-3.1-6.7-4.7
		c-5.6-4.1-11.2-8.5-16.5-12.9c-2.8-2.2-5.5-4.5-8.2-6.8c-1.4-1.1-2.7-2.3-4-3.5c-1.2-1-2.4-2.1-3.5-3.2
		c-2.1-2.3-10.7-14.4-10.1-17.5c-2.6-1.3-3.8-4.5-5-6.9c-3.1-6-8.3-35.2-8.5-41.9c0-0.8,1.4-2,1.4-2.6c1.1-0.3,2.1-0.8,3.1-1.3
		c10.3-4.3,14.9,24.6,38.6,28.5c13,2.2,27.8-18.6,29.8-22.8c1.5-3.1-2.8-9.8-8-11.1c-3.8-0.9-7.2,1.2-8.4,1.8
		c-13.1,7.3-39-5.1-53.6-7.6c3.2-4.1,7-7.7,11.3-10.7c5.2-3.9,10.5-7.5,16.1-10.7c11.2-6.6,23.2-11.9,35.6-15.8
		c2.7-0.6,5.4-1.6,7.9-2.8c4-2.3,8.9-7.2,10.7-8.8c4.2-3.8,12.8-20.9,10.1-21c-3.1,0-22.3-1.2-25.5-0.9c-9.6,0.8-15.4,8.8-25.2,16.6
		c-5.1,4-10.7,11.8-16.2,17c-2.3,2.2-14.6,16.3-17.4,18c-1.4,0.8-9.1,8.6-10.5,9.4s-2.9,1.5-4.5,0.9c-0.7-0.2-1-0.9-0.9-1.5
		c0-0.1,0.1-0.2,0.1-0.2c-0.8-0.5-1.4-1.1-1.9-1.9c-1.2-2-1.2-4.6-1.2-6.9c-0.1-2.3-0.1-4.9,0-7.4c0.1-4.9-0.6,4.9,0,0
		c1.1-9.9,2.1-10.3,5-19.8c1.4-4.7,4.9-12.8,6.7-17.4c2.2-5.3,4.8-10.5,7.7-15.5c2.3-3.9,9.9-15.8,13.4-18.8
		c3.5-3,7.7-5.4,10.5-16.8c0.4-1.8-0.8-4.6-2.2-6.5c-1.2-1.6-2.3-3.1-4.2-3.4c-2.2-0.2-4.4-0.1-6.5,0.5c-2,0.4-4,1.1-5.9,2
		c-8.1,3.7-14.2,10.4-18.7,17.9c-4.7,8.3-8.3,17.1-10.9,26.3c-2.9,9.4-5.1,19-6.5,28.7c-1.4,9.7-2.1,19.4-2,29.2
		c0.1,9.8,0.9,19.5,2.5,29.2c0.1,0.4,0,0.8-0.3,1.1c0.3,0.8,0.6,1.6,0.7,2.4c0.3,1.9-0.4,3.8-2,5c-1.8,1.1-4.1,1.1-5.9-0.1
		c-1.9-1.3-3.2-3.3-3.6-5.5c-0.5-2.5-0.9-5-1.1-7.5c-0.6-5.3-1.2-10.7-2.2-16c-0.5-2.6-1-5.2-1.8-7.7c-0.6-2.2-1.4-4.3-2.4-6.4
		c-1.6-3-4.6-6.5-8.5-5.6c-3.9,0.9-5.8,5.3-6.6,8.8c-2.4,10.2,1.1,21,4.9,30.3c1.7,4.5,4.1,8.8,7,12.7c3.1,3.9,7.1,6.9,10.9,10.1
		c3.7,3.1,6.7,6.8,9.1,11c2.2,4.2,4,8.5,5.4,12.9c1.5,4.4,3.1,8.8,5.1,13.1c1.9,4.1,4.2,8,6.8,11.7c5.2,7.4,11.4,14.2,18.3,20.2
		c6.9,6,14.3,11.6,22,16.6C127.3,247.2,136,253.2,145.9,254.1z"/>
	<path class="st0" d="M138.9,451.5c0.3-2,0.7-4.1,1.1-6.1c0-0.3,0.1-0.5,0.2-0.8c-1.2,1.7-2.5,3.4-3.6,5.2
		c-8.4,13-14.4,27.4-17.6,42.5c-0.6,2.5-1,5.1-1.5,7.6h21.8c0-0.2,0-0.4,0-0.5c-0.1-1.2-0.3-2.4-0.4-3.6c-0.2-2.3-0.4-4.6-0.5-6.9
		c-0.6-8.3-0.8-16.7-0.6-25.1C138,459.8,138.3,455.6,138.9,451.5z"/>
	<path class="st0" d="M371,139.1"/>
	<path class="st0" d="M371,107c9.2,43.6-25.4,87.1-55.7,121c-23.4,26.1-45.6,34.8-44.1,37.3c2.2,3.6,50.5-12.4,87.5-52.3
		c11.2-12,20.7-25.5,28.2-40.1c23.1-45.6,33.4-118.4,0-144c-14.9-11.4-39.5-14.2-49.2-4.3s4.3,26,9.9,32.7
		C359.7,71.5,368.8,96.5,371,107z"/>
	<path class="st0" d="M365.1,255.1c-6.9,1.5-13.6,3.7-20,6.4c-6.3,2.8-12.4,6-18.4,9.5c-5.9,3.5-12.1,6.4-18.6,8.6
		c-5,1.5-12.6,2.8-14.4,8.5l0.1,0.1c0.2,0.3,0.4,0.6,0.4,1c0,0.5-0.3,0.9-0.8,1c-0.8,0.3-1.4-0.2-2-0.7c-1.2-0.9-2.1-2.1-2.8-3.5
		c-0.5-1-0.7-2-0.9-3.1c-0.1-0.7,0-1.4,0.2-2c0-0.9,4.7-5,10.5-9.7c1.7-1.4,26.6-29.4,28.4-30.8l-38.6,13.1c-3.6,1.2-7.5,1.9-11.3,2
		c-1.4,0.1-2.8,0-4.2-0.3c-1.3-0.4-2.3-1.2-2.9-2.4c-1.2-2.4-2.1-5-2.6-7.7c-0.9-5.5-1.2-11-0.9-16.6c0-2.8,0-5.5-0.1-8.3
		c-0.1-2-0.5-5.5-3.1-5.9c-2-0.3-3,2.2-3.4,3.6c-0.7,2.7-1.1,5.5-1.1,8.3c-0.2,5.9,0.4,11.8,1.8,17.6c2.4,11.2,6.7,21.9,8.8,33.1
		l-1.3,1.9c0-0.1-0.1-0.2-0.1-0.4l-5.4-0.9c-8.6-1.4-17.3-2.1-26.1-2.2c-4.2,0.2-8.3-0.5-12.2-2c-3.4-1.8-6.7-3.9-9.6-6.4
		c-3-2.3-5.6-4.9-7.8-7.9c-2.2-3.1-3.8-6.6-4.6-10.3c-1.7-7.7-0.6-15.7,0.9-23.3c3.2-16.3,9.1-32.4,8.3-49.1c-0.1-2,0-8.7-3.7-6.7
		c-1.5,0.9-2.6,2.2-3.3,3.8c-0.9,1.7-1.5,3.5-2.1,5.3c-1,3.9-1.8,7.8-2.3,11.8l-2.1,13.2l-2.1,13.2c-0.7,4.1-1.2,8.3-2.1,12.4
		c-0.7,3.7-2.4,7.2-4.8,10.1c-2.1,2.4-5.2,3.9-8.4,4.1c8.4,10.9,14.8,24.5,14.2,38.4c0,0.5-0.9,0.7-1,0.1c-0.2-1.7-0.5-3.4-0.8-5
		c-2.5-13.4-8.6-26-17.7-36.3c-4.5-5.1-9.4-9.8-14.8-14c-1.3-1-2.6-2-3.9-3c-1.3-1.1-2.8-2-4.5-2.5c-2.9-0.6-4.2,2.1-4.7,4.4
		c-0.3,1.4-0.5,2.8-0.5,4.3c-0.2,1.8,0,3.6,0.6,5.2c0.6,1.6,1.6,3.1,2.2,4.7c0.6,1.7,1,3.4,1.1,5.1c0.6,7.3-2.4,14.1-4.2,21
		c-1.8,7.2-1.8,14.8-1.7,22.2c-0.1,6.2,0.7,12.4,2.5,18.3c1.8,5.7,5.6,10.5,10.8,13.6c5.2,2.9,11.2,3.8,17,2.4
		c0.7-0.1,1.3,0.3,1.5,1c0.1,0.6-0.2,1.2-0.8,1.4c-1.5,0.4-3.1,0.6-4.6,0.7c-1.1,0.1-2.2,0.1-3.3,0c0.8,3.8,1.4,7.8,3.3,11.4
		c1,1.9,2.3,3.5,3.1,5.4c0.8,2.1,0.7,4.5-0.2,6.5c-0.7,2-1.7,3.8-2.6,5.7s-1.7,3.8-2.6,5.7c-1.7,3.8-3.2,7.6-4.7,11.5
		c-3,7.8-5.7,15.7-8.1,23.6c-2.4,8-4.7,16.1-6.8,24.3c-1,4-2.1,8.1-3.1,12.1c-0.5,2-1,4.1-1.5,6.1c-0.4,2.1-1,4.2-1.7,6.2
		c-0.1,0.2-0.2,0.4-0.4,0.5c-0.1,0.6-0.2,1.2-0.3,1.8c-0.4,2.2-0.7,4.5-0.9,6.7c-0.8,8.2-1.1,16.4-0.8,24.6
		c0.1,4.1,0.4,8.2,0.7,12.2c0.2,2.1,0.3,4.1,0.5,6.3c0.1,1.1,0.1,2.1,0.2,3.2h162.2c0,0,3.4-14.3,2.4-21.3
		c-0.6-3.9-1.4-7.8-2.4-11.6c-1.1-3.8-2.4-7.6-3.9-11.3c-1.4-3.8-2.3-7.8-2.9-11.9c-0.7-4.1-1.3-8.3-1.9-12.4
		c-0.6-4.1-1.3-8.4-1.9-12.6c-0.3-2.1-0.6-4.1-0.9-6.2c-0.2-1.4-0.4-2.8-0.5-4.1c-3.5,1.3-7,2.6-10.5,3.6c-6.6,1.9-14.1,3-20.6,0.3
		c-3.1-1.4-5.9-3.3-8.3-5.8c-2.3-2.4-4.8-4.6-7.6-6.5c-0.6-0.4-0.7-1.2-0.4-1.7c0.4-0.5,1.1-0.7,1.6-0.4c1.4,0.8,2.7,1.7,3.9,2.8
		c2.5,2.1,4.6,4.6,7.2,6.6c2.5,2,5.6,3.3,8.8,3.8c6.7,1.1,13.6-1,19.8-3.2c2.1-0.7,4.2-1.5,6.3-2.3h0.1c1.5-0.6,3.1-1.2,4.6-1.8
		c3.6-1.5,7.2-3.1,10.8-4.7c1.7-0.8,3.5-1.4,5.4-1.8c1.9-0.4,3.8-0.5,5.8-0.5c1.9,0,3.9,0.1,5.8,0c1.9-0.1,3.8-0.4,5.6-0.9
		c3.5-1,7-2.3,10.3-3.9c3-1.5,5.7-3.6,7.8-6.2c4.3-5.7,5.7-12.9,6.3-19.8c0.2-1.9,0.3-3.9,0.4-5.8c0.3-1.6,0.1-3.3-0.4-4.9
		c-1.3-2.6-4.9-3.4-7.4-4.5c-5.9-2.7-11.3-6.4-15.8-11c-4.6-4.6-8.7-9.8-12.2-15.3c-3.4-5.2-6.1-11.6-11.7-14.9
		c-0.5-0.3-0.1-1,0.4-0.8c1.5,0.6,2.8,1.5,4,2.5c2.4,2.2,4.4,4.8,6.2,7.5c1.9,2.8,3.7,5.5,5.7,8.2c1.2,1.6,2.4,3.2,3.7,4.8
		c0.1-0.1,0.3-0.2,0.4-0.2c7.1-2,13.6-5.7,18.9-10.7c5.1-4.8,9.4-10.6,13.7-16c4.5-5.5,8.6-11.3,12.3-17.4
		c3.7-6.1,6.7-12.7,8.7-19.6c0.5-1.7,0.8-3.3,1.4-5c0.6-1.5,1.3-2.8,2.2-4.1c1.2-1.9,2.9-4.1,2.6-6.5
		C379.9,252.6,372.4,253.5,365.1,255.1z"/>
	<path class="st0" d="M323.3,224.4c-1-5,105.7-27.5,125.9-60.9c4.2-7.3,10.5-13.3,18.1-17.2c9.6-4.7,22.6-6,25.3-1.4
		c3.5,5.9-11.4,20.6-17.4,26.5C426,219.9,324.4,229.2,323.3,224.4z"/>
</g>
</svg>
