<svg xmlns="http://www.w3.org/2000/svg" viewBox="0 0 901.66 778.01"><defs><style>.cls-1{isolation:isolate;}.cls-2{opacity:0.2;}.cls-3{fill:#81d8d0;}.cls-4{fill:#1a3151;}.cls-5{fill:#145566;}.cls-6{fill:#d5c6ab;}.cls-7{fill:#3b3631;}.cls-8{fill:#eac5b0;}.cls-9{opacity:0.12;mix-blend-mode:multiply;}.cls-10{fill:#e2bdaa;}.cls-11{fill:#3ababa;}.cls-12{fill:#48c1be;}.cls-13{fill:#b77858;}.cls-14{fill:#9ea6ad;}</style></defs><g class="cls-1"><g id="Shadow"><g class="cls-2"><path class="cls-3" d="M462.83,681.88c-26.41.08-52.81.75-79.17,3.86-9.94,1.17-19.67,3.75-29.63,4.79-19.9,2.07-39.44,5.94-59.4,7.73-16.08,1.44-32.23,2.29-48.26,4.11a160.35,160.35,0,0,1-46.59-1.51c-11-2.09-22.14-3.27-33-6.63-12.15-3.76-25.34-6.45-38-6.35-18,.14-35.61.15-52.88,6.79-6.06,2.33-13.48,6.16-18.09,11.05-10.54,11.2-12,39.13-1.44,50.74C74.1,776,111.93,783.66,136.77,784c27.22.39,53.66-1.75,80.92-3,25.33-1.17,50.6-2.83,76-2.77,51.82.12,103.65,0,155.37-3.67,48.6-3.44,97.32-2.26,146-2.26,49.94,0,99.55.41,149.14,7.45,21.6,3.06,43.61,4.13,65.32,6.28C829,788,847.66,786,867,784.23a131.17,131.17,0,0,0,47.19-13.39c11.7-5.92,32.55-24.32,36.13-38.45,10.06-39.63-141.7-38.68-165-38.59-26.07.1-52.35,1-78.39,0-11-.44-21.75-2.71-32.45-5.2s-21.38-1.84-32.18-2.89c-45-4.33-90.19-3.7-135.37-3.7C492.25,682,477.54,681.83,462.83,681.88Z" transform="translate(-49.17 -8.83)"/></g></g><g id="Object"><polygon class="cls-4" points="513.01 717.98 514.37 728.54 494.6 741.82 482.69 732.61 491.89 720.7 511.65 707.42 513.01 717.98"/><polygon class="cls-4" points="513.68 714.43 498.44 579.75 516.77 428.98 512.65 396.91 430.74 393.8 427.79 446 441.54 579.96 493.27 721.32 513.68 714.43"/><polygon class="cls-4" points="370.64 408.89 370.43 544.8 397.79 719.76 417.48 719.56 428.3 557.77 453.63 395.82 370.64 408.89"/><polygon class="cls-4" points="417.44 727.87 396.26 738.73 385.5 728.19 396.05 717.43 417.34 717.22 417.44 727.87"/><path class="cls-5" d="M574.42,463.94c-.19-5.89-.52-10.8-.57-12.56-.42-15.8-1.82-31.56-3.8-47.25-1.77-14.06-4-48.95-6.42-62.93-2-11.53-8.91-40.32-13.91-51-12.43-26.61-8.59-29.07-63.22-37-23.95-3.46-29.61,11.46-49.18,28.62-1.93,1.69-1.82,11.77-2.27,14.44-.79,4.7-1.64,9.39-2.61,14.06q-1.14,5.51-2.54,11c-9.74,37.62-20.94,73.78-23.23,112.78-.65,11-4,21.68-3.73,32.78a6,6,0,0,0,.93,3.64c3.31,4.17,21.56-2.2,27.1-2.74a408,408,0,0,1,42.66-2.16,269.06,269.06,0,0,1,43.45,4.05c9.57,1.6,19.33,3.92,27.88,8.39,8.16,4.26,14,10.54,22.34,15a4.31,4.31,0,0,0,2.53.73C574.59,493.05,574.81,476.34,574.42,463.94Z" transform="translate(-49.17 -8.83)"/><path class="cls-6" d="M486.43,260.71c2.76,1.37,9.27,1.85,16.05-.8a3.57,3.57,0,0,0,2.28-3.33,92.46,92.46,0,0,0-1-12.32c5.09-1.79,11-4.47,11.86-9.79a15.22,15.22,0,0,0-.3-5.07q-1.79-10.38-3.59-20.77a18.54,18.54,0,0,0-2.15-6.91c-2.29-3.6-6.72-5.17-10.92-5.9-10.72-1.86-22.41.46-30.72,7.48a16.73,16.73,0,0,0-5.19,6.84c-1.5,4.21-.38,8.85.76,13.16q1.56,6,3.14,12c1.2,4.59,2.94,9.8,7.36,11.52,2.34.91,5.11.65,7.24,2C485,251.16,484.49,256.73,486.43,260.71Z" transform="translate(-49.17 -8.83)"/><path class="cls-7" d="M427.3,191.36c-1.83-17.19,5.68-35.29,19.82-31.69,8.56,2.18,16.23,5.79,24.85,2.57,8.1-3,14-1.79,22.42,1.23,9.17,3.27,21.47,4,29.76,8.65a24.5,24.5,0,0,1,8.39,8.27,36.89,36.89,0,0,1,.1,39,51.92,51.92,0,0,1-5.74,7.23c-4.32,4.69-9.5,10.48-15.44,12.22-.14-5.32,4.7-22.1.62-26.46-6.49-6.92-21.15-4.5-29.19-2.8-8.77,1.86-16.59,8.07-25.29,9.4C438.39,221.9,429,207,427.3,191.36Z" transform="translate(-49.17 -8.83)"/><path class="cls-8" d="M587.7,15.8C551.45,11.46,505,29.5,492.88,60.63,483.13,28.7,428.06,7.24,391.59,8.92c-96.25,4.42-132.76,111.93-94.79,186.52,20.44,40.14,50.63,75.69,83.81,107.84,27.79,26.91,99.91,84.49,100.14,84.31.22.2,76.41-51.94,106.11-76.75,35.48-29.63,68.22-62.88,91.58-101.42C721.83,137.82,683.36,27.26,587.7,15.8Z" transform="translate(-49.17 -8.83)"/><g class="cls-9"><path d="M657.42,216.28a526.48,526.48,0,0,1-84.65,77.56C542.85,315.65,508,334.33,470.3,339.61A129.56,129.56,0,0,1,418,336.55c29.72,25.12,62.07,50.87,62.23,50.75.22.19,76.4-51.95,106.11-76.76,35.48-29.62,68.22-62.87,91.57-101.41a122,122,0,0,0,15.35-40.22A385.08,385.08,0,0,1,657.42,216.28Z" transform="translate(-49.17 -8.83)"/></g><polygon class="cls-10" points="193.75 491.2 121.42 464.61 136.33 591.3 127.69 700.61 127.46 701.34 127.63 701.36 126.88 710.96 140.2 709.78 140.2 709.78 140.2 709.78 174.27 605.62 191.13 501.88 191.13 501.88 193.75 491.2"/><polygon class="cls-4" points="141.14 707.94 126.34 707.57 122.56 720.05 122.94 720.16 122.84 720.17 147.31 734.67 158.94 735.96 160.41 722.67 157.27 720.37 141.14 707.94"/><polygon class="cls-10" points="243.01 493.38 221.27 715.35 208.07 719.76 192.61 593.83 167.68 477.17 243.01 493.38"/><polygon class="cls-4" points="221.27 715.35 240.23 726.1 238.46 735.05 204.57 729.94 206.57 717.05 221.27 715.35"/><path class="cls-11" d="M326.09,556.69c4.57-3.18,4.67-8.71,4.66-14.26,0-10.4-1.88-21-4.27-31.15-4.54-19-9.69-41.82-12-66.4-5.85-63.53-25.92-106.16-25.92-106.16l-6.47-17.27c-1.29-2.24-2.62-4.46-4-6.65C270,302.11,256,280.55,241,277l-1-.21c-15.78-3.47-36-1.86-50.28,5.82a49,49,0,0,0-7.5,5.32c-7,5.63-12.67,8.67-15.67,17.25-2.62,7.44-3.22,15.57-4.66,23.28-2.93,15.68-4.67,31.54-7,47.31-4.38,29.57-8.1,59.23-12.78,88.75-2.41,15.19-4.84,30.41-6,45.77-1,13.57-13.25,27.35-20.14,39.52-2.39,4.23,32,15.2,35.08,15.92,14.27,3.32,29.44,2.47,44.15,2.54q48.34.21,96.62-3c10.68-.71,23.85-2.75,33.33-8.07C325.51,557.06,325.81,556.88,326.09,556.69Z" transform="translate(-49.17 -8.83)"/><path class="cls-4" d="M247.66,242.62c2.75,8.25-1.23,17-4.72,24.56-3.09,6.66-4.17,11.05,3.69,12.85,4.42,1,12.28,2.9,16.16-.49,2.94-2.56,1.29-10.49-.14-13.64-1.1-2.41-4-3.63-5-6.06a8.31,8.31,0,0,1-.5-3.21A44.14,44.14,0,0,1,259,243.46c.86-2.89,2-5.73,2.28-8.74.38-4.36-2.7-9.45-4.33-13.46-3-7.45-13.51-17.46-22.3-11.6-2,1.33-3.17,3.58-4.14,5.78a10.73,10.73,0,0,0-1.15,4.12c-.07,5.73,5.16,6.69,8.77,9.42A28.67,28.67,0,0,1,247.66,242.62Z" transform="translate(-49.17 -8.83)"/><path class="cls-10" d="M230.94,274.8c7.62-1.79,13.59-8.2,16.45-15.49s3-15.37,2.22-23.16c-2.63-25.93-34.89-24.27-45.81-4.39C194.28,249.08,208.77,280,230.94,274.8Z" transform="translate(-49.17 -8.83)"/><path class="cls-10" d="M230.93,272c-.12,2.95-.25,5.91-.38,8.86a1.84,1.84,0,0,1-.36,1.22,1.8,1.8,0,0,1-1.39.34l-7.22-.25a7.93,7.93,0,0,1-3.49-.66c-2.3-1.24-2.78-4.36-2.41-6.94s1.3-5.2.75-7.75c5,2.45,9.69-3.09,14.66-.64Z" transform="translate(-49.17 -8.83)"/><path class="cls-4" d="M220.53,191.19c-8.47,2.88-13.9,11.45-22.17,14.87-4.74,2-10.35,2.21-14.21,5.58-8.67,7.55-1.71,23.4-8.83,32.43-1.48,1.88-3.47,3.3-5,5.17-3.21,4-3.62,9.55-3.91,14.7a15.92,15.92,0,0,0,.12,3.58c1.12,11.89,18.38,11.13,25.23,10.37,7.53-.83,5-5,5-5l-.28-.34a14.42,14.42,0,0,1,5.06-13.05c1.41-1.14,3.07-2.05,4.06-3.56,2.23-3.41.11-7.91.43-12,1.32-16.32,28.72-12.82,36.45-24.45C252,205.26,236.53,185.76,220.53,191.19Z" transform="translate(-49.17 -8.83)"/><polygon class="cls-11" points="122.56 289.2 34.1 368.04 49.02 393.23 133.25 338.72 122.56 289.2"/><path class="cls-8" d="M56.56,226.78a18,18,0,0,1,35-8.27v0l29.56,72.21a66.67,66.67,0,0,0,37.78,37l62.78,24.11-49.36-46.13a16.94,16.94,0,0,1-2.23-2.09l0,0h0A16.5,16.5,0,0,1,190,278h0l63.79,35.41a112.44,112.44,0,0,1,54.77,72.15l8.16,34.17a43.06,43.06,0,0,1-64,46.95l-130-63.95a64.81,64.81,0,0,1-34.44-43.1L56.56,226.79Z" transform="translate(-49.17 -8.83)"/><polygon class="cls-10" points="272.52 425.8 265.22 440.71 258.71 437.86 261.45 426.54 257.75 426.63 265.56 414.63 272.72 416.67 272.52 425.8"/><polygon class="cls-12" points="214.37 274.72 191.8 268.03 202.67 297.29 255.33 357.48 254.88 352.56 260.91 414.89 274.87 422.31 291.37 345.17 214.37 274.72"/><polygon class="cls-10" points="47.44 385.23 59.19 383.45 55.99 364.25 37.4 356.61 29.56 372.06 47.44 385.23"/><polygon class="cls-13" points="294.36 274.52 296.15 262.77 315.35 266 322.97 284.59 307.5 292.41 294.36 274.52"/><polygon class="cls-13" points="578.87 276.52 579.53 264.66 560.08 263.86 548.8 280.49 562.32 291.32 578.87 276.52"/><polygon class="cls-14" points="748.65 259.2 832.74 350.36 768.83 404.63 759.38 393.23 784.41 341.22 735.38 297.99 748.65 259.2"/><polygon class="cls-5" points="769.58 486.38 773.38 574.41 762.25 724.09 745.6 725.27 725.37 589.33 697.39 474.29 769.58 486.38"/><polygon class="cls-4" points="746.2 732.29 764.84 740.01 773.2 730.37 763.56 722.01 745.55 723.29 746.2 732.29"/><polygon class="cls-5" points="651.73 455.23 648.07 521.77 658.91 719.62 675.58 720.45 700.57 590.69 722.6 448.38 651.73 455.23"/><polygon class="cls-4" points="675.14 727.48 656.66 735.59 648.1 726.13 657.56 717.56 675.59 718.47 675.14 727.48"/><path class="cls-14" d="M797.82,268l-52-5.57s-28.94,3.09-48.57,71.81C686.3,372.51,683,432.75,682.18,478.68c1.22,6.55,8.36,35.24,38.54,30.38,51.83-8.36,79.42-16.72,102-12.54,19.22,4.18,17.6-22.29,15.48-42.5l-7.66-62.5Z" transform="translate(-49.17 -8.83)"/><path class="cls-13" d="M787.77,203.28c-13.11-2.89-26.6-5.48-39.73-2.88-2.87.57-6,1.57-7.52,4a11.71,11.71,0,0,0-1.22,3.17c-3.31,12.31-7.51,30.56.59,41.9a20.38,20.38,0,0,0,5.86,5.28,28.76,28.76,0,0,0,9.7,3.8,52,52,0,0,1-2.94,8.94c3,4.53,17,5.07,19.59.73.15-3.75.29-7.51.44-11.26a28.36,28.36,0,0,0,4.89-2.54c6-3.94,9.93-9.93,12.22-16.62,2.49-7.28,6-14.21,8.28-21.63.83-2.71,1.49-5.8.06-8.24-1.51-2.61-4.78-3.49-7.72-4.15Z" transform="translate(-49.17 -8.83)"/><path class="cls-4" d="M744.13,210.32c6.48-4.17,16.21-6,22.3-5.52,18.42,1.33,25.17,14.86,26.15,31.8,5.08-6.45,14.6-14.56,15.18-22.86.47-6.8-.47-16.06-4.28-21.93-3.56-5.49-12.66-8.51-18.08-11.69l-15.32-9a10.16,10.16,0,0,0-3.36-1.47,10.4,10.4,0,0,0-4.31.48l-36.2,9.36c-2.32.59-5,1.47-5.81,3.71a7.51,7.51,0,0,0,.1,4.3c1.37,6.26,4,12.67,4.65,19,.73,3.69,2.93,22.58,9.46,20.4,1.92-3.13,2.2-7,3.7-10.35A15,15,0,0,1,744.13,210.32Z" transform="translate(-49.17 -8.83)"/><polygon class="cls-14" points="696.63 253.63 677.41 259.48 607.19 333.04 603.01 357.28 636.58 412.71 645.64 392.39 631.43 351.43 654 335.55 684.09 267.84 696.63 253.63"/><path class="cls-8" d="M868.17,221.15a18,18,0,0,0-35.51-5.54v0l-23.85,74.3A66.67,66.67,0,0,1,774,329.72L713.3,358.64l45.63-49.83a17,17,0,0,0,2.06-2.26l0,0h0a16.5,16.5,0,0,0-21.93-23.92h0l-60.85,40.27a112.39,112.39,0,0,0-49,76.19l-5.48,34.7a43.07,43.07,0,0,0,67.45,41.83l124.67-73.86a64.81,64.81,0,0,0,31-45.66l21.31-134.92Z" transform="translate(-49.17 -8.83)"/><polygon class="cls-13" points="575.76 379.48 586.09 373.6 595.47 390.65 585.62 408.17 569.89 400.89 575.76 379.48"/><polygon class="cls-13" points="787.35 392.39 789.73 380.75 770.6 377.13 757.02 391.94 768.83 404.63 787.35 392.39"/></g></g></svg>